<?xml version="1.0" encoding="UTF-8" standalone="no"?>
<!-- Created with Inkscape (http://www.inkscape.org/) -->

<svg
   xmlns:osb="http://www.openswatchbook.org/uri/2009/osb"
   xmlns:dc="http://purl.org/dc/elements/1.1/"
   xmlns:cc="http://creativecommons.org/ns#"
   xmlns:rdf="http://www.w3.org/1999/02/22-rdf-syntax-ns#"
   xmlns:svg="http://www.w3.org/2000/svg"
   xmlns="http://www.w3.org/2000/svg"
   xmlns:sodipodi="http://sodipodi.sourceforge.net/DTD/sodipodi-0.dtd"
   xmlns:inkscape="http://www.inkscape.org/namespaces/inkscape"
   width="744.09448819"
   height="1052.3622047"
   id="svg2"
   version="1.1"
   inkscape:version="0.48.2 r9819"
   sodipodi:docname="New document 1">
  <defs
     id="defs4">
    <linearGradient
       id="linearGradient5231"
       osb:paint="solid">
      <stop
         style="stop-color:#000000;stop-opacity:1;"
         offset="0"
         id="stop5233" />
    </linearGradient>
  </defs>
  <sodipodi:namedview
     id="base"
     pagecolor="#ffffff"
     bordercolor="#666666"
     borderopacity="1.0"
     inkscape:pageopacity="0.0"
     inkscape:pageshadow="2"
     inkscape:zoom="0.82"
     inkscape:cx="176.21951"
     inkscape:cy="1991.1765"
     inkscape:document-units="px"
     inkscape:current-layer="layer1"
     showgrid="false"
     inkscape:window-width="1366"
     inkscape:window-height="721"
     inkscape:window-x="-4"
     inkscape:window-y="-4"
     inkscape:window-maximized="1" />
  <metadata
     id="metadata7">
    <rdf:RDF>
      <cc:Work
         rdf:about="">
        <dc:format>image/svg+xml</dc:format>
        <dc:type
           rdf:resource="http://purl.org/dc/dcmitype/StillImage" />
        <dc:title></dc:title>
      </cc:Work>
    </rdf:RDF>
  </metadata>
  <g
     inkscape:label="Layer 1"
     inkscape:groupmode="layer"
     id="layer1"
     style="display:inline">
    <rect
       style="fill:#cccccc;fill-opacity:1;fill-rule:evenodd;stroke:#000000;stroke-width:1.124;stroke-linecap:butt;stroke-linejoin:miter;stroke-opacity:1;stroke-miterlimit:4;stroke-dasharray:none"
       id="rect3017"
       width="410.97562"
       height="122.79753"
       x="173.17073"
       y="-751.29633" />
    <path
       style="fill:none;stroke:#000000;stroke-width:1px;stroke-linecap:butt;stroke-linejoin:miter;stroke-opacity:1"
       d="m 315.85366,-752.51587 c 6.09756,-321.95123 6.09756,-321.95123 6.09756,-321.95123 l 56.09756,-37.8049 67.07317,40.2439 -2.43902,319.51223"
       id="path5245"
       inkscape:connector-curvature="0" />
    <path
       style="fill:#cccccc;stroke:#000000;stroke-width:1.3;stroke-linecap:butt;stroke-linejoin:miter;stroke-opacity:1;stroke-miterlimit:4;stroke-dasharray:none"
       d="M 514.63415,-980.56465 97.560976,-1219.589 l -23.170733,26.8292 -21.951219,25.6098 492.682926,334.14633 80.48781,-39.02439 -19.5122,-54.87805 z"
       id="path5247"
       inkscape:connector-curvature="0"
       sodipodi:nodetypes="cccccccc" />
    <path
       sodipodi:type="arc"
       style="fill:none"
       id="path5251"
       sodipodi:cx="-6.7073169"
       sodipodi:cy="-1225.0768"
       sodipodi:rx="9.1463413"
       sodipodi:ry="46.951218"
       d="m 2.4390244,-1225.0768 a 9.1463413,46.951218 0 1 1 -18.2926824,0 9.1463413,46.951218 0 1 1 18.2926824,0 z" />
    <path
       style="fill:#cccccc;fill-opacity:1;stroke:#000000;stroke-width:0.72;stroke-opacity:1;stroke-miterlimit:4;stroke-dasharray:none"
       d="m 317.39181,-779.61931 c 0.38862,-15.25914 1.44559,-66.89042 2.34884,-114.73617 0.90324,-47.84575 1.89529,-87.24529 2.20454,-87.55455 0.30925,-0.30925 27.51809,17.70922 60.46408,40.04105 l 59.90179,40.60333 0.002,59.86951 c 10e-4,32.92823 -0.35572,66.54104 -0.79417,74.69512 l -0.79659,14.82561 -62.01875,0 -62.01875,0 0.70657,-27.7439 z"
       id="path5265"
       inkscape:connector-curvature="0" />
    <path
       style="fill:#cccccc;fill-opacity:1;stroke:#000000;stroke-width:0.82;stroke-opacity:1;stroke-miterlimit:4;stroke-dasharray:none"
       d="m 390.79268,-1052.9416 c -28.67378,-16.4187 -52.13414,-30.2175 -52.13414,-30.6641 0,-0.7675 38.41283,-26.8063 39.54507,-26.8063 0.88584,0 62.16456,36.8128 63.83515,38.3486 1.1759,1.081 1.4708,7.1748 1.21951,25.1998 l -0.33144,23.7741 -52.13415,-29.8521 z"
       id="path5267"
       inkscape:connector-curvature="0" />
    <path
       transform="matrix(0.25274997,0,0,0.25859792,407.37087,-753.0537)"
       sodipodi:open="true"
       sodipodi:end="6.2422359"
       sodipodi:start="0"
       d="m 29.268303,-945.80853 a 104.2683,104.2683 0 1 1 -0.08741,-4.26853"
       sodipodi:ry="104.2683"
       sodipodi:rx="104.2683"
       sodipodi:cy="-945.80853"
       sodipodi:cx="-75"
       id="path5272-3"
       style="fill:#b3b3b3;fill-opacity:1;stroke:#000000;stroke-opacity:1;display:inline;stroke-width:3.73938191000000010;stroke-miterlimit:4;stroke-dasharray:none"
       sodipodi:type="arc" />
    <path
       style="fill:#cccccc;stroke:#000000;stroke-width:0.98673594px;stroke-linecap:butt;stroke-linejoin:miter;stroke-opacity:1"
       d="m 139.02853,-1256.181 -208.547353,237.6287 50.001867,37.99433 220.743086,-235.64043 z"
       id="path5381"
       inkscape:connector-curvature="0"
       sodipodi:nodetypes="ccccc" />
  </g>
  <g
     inkscape:groupmode="layer"
     id="layer2"
     inkscape:label="Layer">
    <path
       sodipodi:type="arc"
       style="fill:#b3b3b3;fill-opacity:1;stroke:#000000;stroke-width:1.76257694000000000;stroke-miterlimit:4;stroke-opacity:1;stroke-dasharray:none;display:inline"
       id="path5334-6"
       sodipodi:cx="-75"
       sodipodi:cy="-945.80853"
       sodipodi:rx="104.2683"
       sodipodi:ry="104.2683"
       d="m 29.268303,-945.80853 a 104.2683,104.2683 0 1 1 -0.08741,-4.26853"
       sodipodi:start="0"
       sodipodi:end="6.2422359"
       sodipodi:open="true"
       transform="matrix(0.20160752,0,0,0.18991163,126.70592,-996.06656)" />
    <path
       style="fill:#cccccc;stroke:#000000;stroke-width:1px;stroke-linecap:butt;stroke-linejoin:miter;stroke-opacity:1;display:inline"
       d="m -60.756101,-974.63832 c 0,-57.31708 0,-57.31708 0,-57.31708 l 52.4390219,0 -1.21951,58.53658 51.2195101,-1.2195 24.829271,54.87793 0.78049,56.09757 c -15.070151,0.40153 -38.181311,0.33001 -53.219521,-0.47561 l -1.21951,-33.06098 20.29268,-0.13415 -1.21951,-17.10975 -25.6097501,-34.14631 -23.1707299,0.7805 0.78049,28.04873 -39.024402,-1.21951 0.43903,-26.82922 -21.951213,0.7805 -24.390246,30.92677 0.62805,17.37805 19.359756,-0.47561 -0.30488,35.53659 c -19.306206,-1.26254 -37.397566,1.20686 -56.707306,0 l 1.21951,-54.87805 27.26829,-56.09745 z"
       id="path5287"
       inkscape:connector-curvature="0"
       sodipodi:nodetypes="ccccccccccccccccccccccccc" />
    <path
       transform="matrix(0.16544935,0,0,0.1712973,-22.957153,-846.59898)"
       sodipodi:open="true"
       sodipodi:end="6.2422359"
       sodipodi:start="0"
       d="m 29.268303,-945.80853 a 104.2683,104.2683 0 1 1 -0.08741,-4.26853"
       sodipodi:ry="104.2683"
       sodipodi:rx="104.2683"
       sodipodi:cy="-945.80853"
       sodipodi:cx="-75"
       id="path5272-3-1"
       style="fill:#b3b3b3;fill-opacity:1;stroke:#000000;stroke-width:5.74999619000000010;stroke-miterlimit:4;stroke-opacity:1;stroke-dasharray:none;display:inline"
       sodipodi:type="arc" />
  </g>
</svg>
