<?xml version="1.0" encoding="UTF-8" standalone="no"?>
<!-- Created with Inkscape (http://www.inkscape.org/) -->

<svg
   xmlns:dc="http://purl.org/dc/elements/1.1/"
   xmlns:cc="http://creativecommons.org/ns#"
   xmlns:rdf="http://www.w3.org/1999/02/22-rdf-syntax-ns#"
   xmlns:svg="http://www.w3.org/2000/svg"
   xmlns="http://www.w3.org/2000/svg"
   xmlns:sodipodi="http://sodipodi.sourceforge.net/DTD/sodipodi-0.dtd"
   xmlns:inkscape="http://www.inkscape.org/namespaces/inkscape"
   width="400"
   height="400"
   id="svg2"
   version="1.1"
   inkscape:version="0.47 r22583"
   sodipodi:docname="Logso.svg"
   inkscape:export-filename="C:\Users\Salizer\Desktop\MaterialSorter\Logso.png"
   inkscape:export-xdpi="120"
   inkscape:export-ydpi="120">
  <defs
     id="defs4">
    <inkscape:perspective
       sodipodi:type="inkscape:persp3d"
       inkscape:vp_x="0 : 526.18109 : 1"
       inkscape:vp_y="0 : 1000 : 0"
       inkscape:vp_z="744.09448 : 526.18109 : 1"
       inkscape:persp3d-origin="372.04724 : 350.78739 : 1"
       id="perspective10" />
  </defs>
  <sodipodi:namedview
     id="base"
     pagecolor="#ffffff"
     bordercolor="#666666"
     borderopacity="1.0"
     inkscape:pageopacity="0.0"
     inkscape:pageshadow="2"
     inkscape:zoom="0.79903066"
     inkscape:cx="294.91505"
     inkscape:cy="200"
     inkscape:document-units="px"
     inkscape:current-layer="layer1"
     showgrid="true"
     inkscape:window-width="1366"
     inkscape:window-height="706"
     inkscape:window-x="-8"
     inkscape:window-y="-8"
     inkscape:window-maximized="1">
    <inkscape:grid
       type="xygrid"
       id="grid2816"
       empspacing="5"
       visible="true"
       enabled="true"
       snapvisiblegridlinesonly="true" />
  </sodipodi:namedview>
  <metadata
     id="metadata7">
    <rdf:RDF>
      <cc:Work
         rdf:about="">
        <dc:format>image/svg+xml</dc:format>
        <dc:type
           rdf:resource="http://purl.org/dc/dcmitype/StillImage" />
        <dc:title></dc:title>
      </cc:Work>
    </rdf:RDF>
  </metadata>
  <g
     inkscape:label="Layer 1"
     inkscape:groupmode="layer"
     id="layer1"
     transform="translate(0,-652.36218)">
    <text
       xml:space="preserve"
       style="font-size:24px;font-style:normal;font-weight:normal;fill:#000000;fill-opacity:1;stroke:none;font-family:Bitstream Vera Sans"
       x="-50"
       y="872.36218"
       id="text2813"><tspan
         sodipodi:role="line"
         id="tspan2815"
         x="-50"
         y="872.36218"
         style="font-size:144px;font-style:normal;font-variant:normal;font-weight:normal;font-stretch:normal;font-family:Courier New;-inkscape-font-specification:Courier New">RoboG</tspan></text>
    <path
       sodipodi:type="arc"
       style="fill:#0000ff;fill-opacity:1;fill-rule:evenodd;stroke:#000000;stroke-width:4;stroke-linecap:round;stroke-linejoin:round;stroke-miterlimit:4;stroke-opacity:1;stroke-dasharray:none;stroke-dashoffset:0"
       id="path2817"
       sodipodi:cx="425"
       sodipodi:cy="180"
       sodipodi:rx="45"
       sodipodi:ry="45"
       d="m 470,180 a 45,45 0 1 1 -90,0 45,45 0 1 1 90,0 z"
       transform="translate(0,652.36218)" />
    <path
       style="fill:#008000;stroke:#000000;stroke-width:1px;stroke-linecap:butt;stroke-linejoin:miter;stroke-opacity:1"
       d="m 397.34513,150.44248 c 0.49081,0.83723 1.54083,0.79018 2.21239,1.32743 0.48864,0.39091 0.8388,0.93653 1.32744,1.32744 0.25753,0.20602 0.62111,0.24459 0.88495,0.44247 0.33374,0.25031 0.55122,0.63466 0.88496,0.88496 0.26384,0.19788 0.65175,0.20927 0.88495,0.44248 0.1043,0.10429 -0.10429,0.33818 0,0.44247 0.23321,0.23321 0.57208,0.33819 0.88496,0.44248 0.13992,0.0466 0.33818,-0.10429 0.44248,0 0.10429,0.1043 -0.1043,0.33819 0,0.44248 0.55018,0.55019 1.11253,0.44248 1.76991,0.44248 0.14749,0 0.33818,-0.1043 0.44248,0 0.10429,0.10429 -0.13193,0.37652 0,0.44248 0.28626,0.14313 1.61096,-0.15895 1.76991,0 0.10429,0.10429 -0.1043,0.33818 0,0.44247 0.10429,0.1043 0.31055,-0.066 0.44248,0 0.18656,0.0933 0.29498,0.29499 0.44247,0.44248 0.1475,0.14749 0.3492,0.25591 0.44248,0.44248 0.066,0.13192 -0.0466,0.30255 0,0.44248 0.10429,0.31288 0.29499,0.58997 0.44248,0.88495 0.14749,0.29499 0.25954,0.61055 0.44248,0.88496 0.1157,0.17355 0.34919,0.25591 0.44247,0.44248 0.13193,0.26384 -0.13192,0.62111 0,0.88495 0.0933,0.18657 0.3492,0.25592 0.44248,0.44248 0.13192,0.26384 -0.20858,0.67637 0,0.88496 0.1043,0.10429 0.33819,-0.1043 0.44248,0 0.10429,0.10429 -0.066,0.31055 0,0.44247 0.92074,1.84149 -0.0306,-0.47302 0.88496,0.44248 0.10429,0.10429 -0.1043,0.33819 0,0.44248 0.10429,0.10429 0.33818,-0.10429 0.44247,0 0.1043,0.10429 -0.066,0.31056 0,0.44248 0.0933,0.18656 0.3492,0.25591 0.44248,0.44248 0.0582,0.11634 0,1.53853 0,1.76991 0,0.34053 0.0732,2.06607 0,2.21239 -0.066,0.13192 -0.33818,-0.1043 -0.44248,0 -0.10429,0.10429 0.1043,0.33818 0,0.44247 -0.10429,0.1043 -0.31055,-0.066 -0.44247,0 -0.37313,0.18657 -0.51183,0.6984 -0.88496,0.88496 -0.13192,0.066 -0.31976,-0.0818 -0.44248,0 -0.34711,0.23141 -0.55122,0.63465 -0.88495,0.88496 -0.26385,0.19788 -0.62112,0.24459 -0.88496,0.44247 -0.33374,0.25031 -0.53785,0.65355 -0.88495,0.88496 -0.12273,0.0818 -0.31056,-0.066 -0.44248,0 -0.18657,0.0933 -0.25592,0.34919 -0.44248,0.44248 -0.13192,0.066 -0.30255,-0.0466 -0.44248,0 -0.31288,0.10429 -0.565,0.36249 -0.88495,0.44248 -0.39504,0.0987 -1.70021,0 -2.21239,0 -0.1475,0 -0.29499,0 -0.44248,0 -0.14749,0 -0.31056,-0.066 -0.44248,0 -0.18656,0.0933 -0.25591,0.34919 -0.44248,0.44247 -0.13192,0.066 -0.33818,-0.10429 -0.44247,0 -0.1043,0.1043 0.10429,0.33819 0,0.44248 -0.91551,0.9155 0.0358,-1.39901 -0.88496,0.44248 -0.066,0.13192 0.066,0.31056 0,0.44248 -0.0933,0.18656 -0.3492,0.25591 -0.44248,0.44247 -0.71957,1.43914 -0.1117,1.05252 -0.88495,2.21239 -0.11571,0.17356 -0.3492,0.25592 -0.44248,0.44248 -0.0806,0.16112 0.0776,1.76991 0,1.76991 -0.14749,0 0,-0.58997 0,-0.44247 0,0.29498 0,0.58997 0,0.88495 0,0.14749 0.10429,0.33819 0,0.44248 -0.10429,0.10429 -0.33819,-0.10429 -0.44248,0 -0.10429,0.10429 0.10429,0.33818 0,0.44248 -0.10429,0.10429 -0.33818,-0.1043 -0.44248,0 -4.2e-4,4.2e-4 6.7e-4,1.32543 0,1.32743 -0.066,0.19788 -0.37651,0.2446 -0.44248,0.44248 -6.6e-4,0.002 4.3e-4,1.32701 0,1.32743 -0.10429,0.1043 -0.33818,-0.10429 -0.44247,0 -0.0687,0.0687 0.0574,1.15526 0,1.32744 -0.1043,0.31287 -0.33819,0.57207 -0.44248,0.88495 -0.0942,0.28257 0.11811,2.09428 0,2.21239 -0.10429,0.10429 -0.33819,-0.10429 -0.44248,0 -0.10429,0.10429 0.10429,0.33819 0,0.44248 -0.10429,0.10429 -0.37652,-0.13192 -0.44248,0 0,2.50737 0.29499,0.14749 -0.44247,0.88495 -0.1043,0.1043 0.10429,0.33819 0,0.44248 -0.0178,0.0178 -1.60742,0 -1.76992,0 -0.10514,0 -1.67074,0.0496 -1.76991,0 -0.97834,-0.48917 -0.13731,-0.27462 -0.44248,-0.88495 -0.0933,-0.18657 -0.34919,-0.25592 -0.44247,-0.44248 -0.13434,-0.26868 0.13434,-2.38619 0,-2.65487 -0.0933,-0.18656 -0.37652,-0.24459 -0.44248,-0.44248 -0.0701,-0.21042 0,-3.14306 0,-3.53982 0,-2.0649 0,-4.12979 0,-6.19469 0,-0.20718 0,-1.89335 0,-0.88496 0,0.29499 0,1.17995 0,0.88496 0,-1.53602 0.31288,-1.01455 -0.44248,-1.76991 -0.14749,-0.14749 -0.34919,-0.25591 -0.44248,-0.44248 -0.30516,-0.61033 0.53587,-0.39578 -0.44248,-0.88495 -0.13192,-0.066 -0.33818,0.10429 -0.44247,0 -0.22124,-0.22124 0.22124,-1.1062 0,-1.32744 -0.1043,-0.10429 -0.33819,0.10429 -0.44248,0 -0.20859,-0.20858 0.13192,-0.62111 0,-0.88495 -0.0933,-0.18657 -0.3492,-0.25592 -0.44248,-0.44248 -0.066,-0.13192 0.0466,-0.30256 0,-0.44248 -0.10429,-0.31288 -0.33818,-0.57208 -0.44248,-0.88496 -0.15613,-0.4684 0.18111,-1.85018 0,-2.21239 -0.066,-0.13192 -0.37651,0.13193 -0.44247,0 -0.13193,-0.26384 0.0933,-0.6051 0,-0.88495 -0.066,-0.19788 -0.3492,-0.25591 -0.44248,-0.44248 -0.14662,-0.29324 0.12361,-1.39906 0,-1.76991 -0.1043,-0.31288 -0.36249,-0.565 -0.44248,-0.88496 -0.0715,-0.28617 0.13192,-0.62111 0,-0.88495 -0.066,-0.13192 -0.33819,0.10429 -0.44248,0 -0.0905,-0.0905 0.0877,-1.152 0,-1.32744 -0.0933,-0.18656 -0.34919,-0.25591 -0.44248,-0.44247 -0.08,-0.16002 0,-1.90463 0,-2.21239 0,-0.73747 0,-1.47493 0,-2.21239 0,-0.29499 -0.0715,-0.59878 0,-0.88496 0.08,-0.31995 0.36249,-0.565 0.44248,-0.88495 0.0716,-0.28618 -0.0933,-0.60511 0,-0.88496 0.066,-0.19788 0.3492,-0.25591 0.44248,-0.44248 0.20859,-0.41717 0.26926,-0.89438 0.44248,-1.32743 0.12248,-0.30622 0.33818,-0.57208 0.44248,-0.88496 0.0466,-0.13992 -0.1043,-0.33818 0,-0.44247 0.10429,-0.1043 0.31055,0.066 0.44247,0 0.18657,-0.0933 0.29499,-0.29499 0.44248,-0.44248 0.14749,-0.14749 0.3492,-0.25592 0.44248,-0.44248 0.066,-0.13192 -0.10429,-0.33818 0,-0.44248 0.23321,-0.2332 0.65175,-0.20927 0.88495,-0.44248 0.1043,-0.10429 -0.10429,-0.33818 0,-0.44247 0.1043,-0.1043 0.29499,0 0.44248,0 0.1475,0 0.29499,0 0.44248,0 1.86306,0 1.11784,-0.13379 5.75221,1.76991 z"
       id="path3591"
       transform="translate(0,652.36218)" />
    <path
       style="fill:#008000;stroke:#000000;stroke-width:1px;stroke-linecap:butt;stroke-linejoin:miter;stroke-opacity:1"
       d="m 392.92035,191.59292 c 0,0.14749 0.1043,0.33819 0,0.44248 -0.10429,0.10429 -0.31055,-0.066 -0.44247,0 -0.18657,0.0933 -0.25592,0.34919 -0.44248,0.44248 -0.26384,0.13192 -0.67637,-0.20859 -0.88496,0 -0.10429,0.10429 0.066,0.31055 0,0.44247 -0.48917,0.97835 -0.27462,0.13731 -0.88495,0.44248 -1.84149,0.92075 0.47302,-0.0305 -0.44248,0.88496 -0.10429,0.10429 -0.33819,-0.1043 -0.44248,0 -0.10429,0.10429 0.066,0.31055 0,0.44248 -0.0933,0.18656 -0.34919,0.25591 -0.44248,0.44247 -0.066,0.13192 0,0.29499 0,0.44248 0,0.14749 0,0.29499 0,0.44248 0,0.73746 0,1.47493 0,2.21239 0,0.14749 0,0.29498 0,0.44248 0,0.14749 0.1043,0.33818 0,0.44247 -0.10429,0.1043 -0.33818,-0.10429 -0.44247,0 -0.20859,0.20859 0.20858,0.67637 0,0.88496 -0.1043,0.10429 -0.33819,-0.10429 -0.44248,0 -0.1043,0.10429 0.10429,0.33818 0,0.44248 -0.1043,0.10429 -0.33819,-0.1043 -0.44248,0 -0.10429,0.10429 0.10429,0.33818 0,0.44248 -0.10429,0.10429 -0.33819,-0.1043 -0.44248,0 -0.10429,0.10429 0.10429,0.33818 0,0.44247 -0.10429,0.1043 -0.33818,-0.10429 -0.44248,0 -0.10429,0.1043 0,0.29499 0,0.44248 0,0.14749 -0.10429,0.33819 0,0.44248 0.1043,0.10429 0.29499,0 0.44248,0 0.14749,0 0.29499,0 0.44248,0 0.14749,0 0.33818,-0.10429 0.44248,0 0.10429,0.10429 -0.066,0.31056 0,0.44248 0.0933,0.18656 0.32677,0.26892 0.44248,0.44248 0.18294,0.27441 0.20927,0.65174 0.44247,0.88495 0.53893,0.53893 0.98859,0.20727 1.32744,0.88496 0.20858,0.41717 0.23389,0.91026 0.44247,1.32743 0.0933,0.18657 0.32678,0.26892 0.44248,0.44248 0.18294,0.27441 0.25954,0.61054 0.44248,0.88495 0.1157,0.17356 0.3492,0.25592 0.44248,0.44248 0.066,0.13192 -0.10429,0.33819 0,0.44248 0.10429,0.10429 0.33818,-0.10429 0.44248,0 0.10429,0.10429 -0.066,0.31056 0,0.44248 0.18656,0.37313 0.69839,0.51182 0.88495,0.88495 0.066,0.13192 0,0.29499 0,0.44248 0.14749,0.14749 0.3492,0.25591 0.44248,0.44248 0.13192,0.26384 -0.20859,0.67637 0,0.88495 0.10429,0.1043 0.33818,-0.10429 0.44248,0 0.10429,0.1043 -0.1043,0.33819 0,0.44248 0.10429,0.1043 0.33818,-0.10429 0.44248,0 0.22123,0.22124 -0.22124,1.1062 0,1.32744 0.10429,0.10429 0.33818,-0.1043 0.44247,0 0.1043,0.10429 -0.066,0.31055 0,0.44247 0.0933,0.18657 0.3492,0.25592 0.44248,0.44248 0.066,0.13192 -0.10429,0.33819 0,0.44248 0.10429,0.10429 0.33819,-0.10429 0.44248,0 0.10429,0.10429 -0.10429,0.33818 0,0.44248 0.10429,0.10429 0.33818,-0.1043 0.44248,0 0.10429,0.10429 -0.1043,0.33818 0,0.44248 0.20858,0.20858 0.62111,-0.13193 0.88495,0 0.18657,0.0933 0.25592,0.34919 0.44248,0.44247 0.13192,0.066 0.33819,-0.10429 0.44248,0 0.10429,0.1043 -0.13192,0.37652 0,0.44248 0.26384,0.13192 0.60511,-0.0933 0.88495,0 0.19789,0.066 0.25592,0.3492 0.44248,0.44248 0.35398,0.17699 0.97345,-0.17699 1.32744,0 0.18656,0.0933 0.25591,0.34919 0.44247,0.44248 0.11635,0.0582 1.53853,0 1.76992,0 0.23138,0 1.65356,0.0582 1.76991,0 0.97834,-0.48917 0.13731,-0.27462 0.44247,-0.88496 0.29575,-0.59149 0.58922,-0.29347 0.88496,-0.88495 0.066,-0.13193 -0.0818,-0.31976 0,-0.44248 0.23141,-0.34711 0.63465,-0.55122 0.88496,-0.88496 0.44472,-0.59296 0.62999,-1.57498 0.88495,-2.21239 0.12249,-0.30621 0.31999,-0.57874 0.44248,-0.88495 0.17322,-0.43306 0.23389,-0.91026 0.44248,-1.32744 0.0933,-0.18656 0.34919,-0.25591 0.44248,-0.44247 0.0673,-0.13467 0,-1.12817 0,-1.32744 0,-0.88495 0,-1.76991 0,-2.65487 0,-0.44247 0.10731,-0.89816 0,-1.32743 -0.34243,-1.36972 -0.57182,-0.51054 -1.32744,-1.76991 -1.60252,-2.67088 0.23221,-0.18835 -0.44248,-2.21239 -0.13192,-0.39576 -0.69839,-0.51183 -0.88495,-0.88496 -0.066,-0.13192 0.066,-0.31055 0,-0.44247 -0.0933,-0.18657 -0.3492,-0.25592 -0.44248,-0.44248 -0.066,-0.13192 0.066,-0.31056 0,-0.44248 -0.0933,-0.18656 -0.34919,-0.25591 -0.44248,-0.44248 -0.066,-0.13192 0.1043,-0.33818 0,-0.44248 -0.10429,-0.10429 -0.33818,0.1043 -0.44248,0 -0.9155,-0.9155 1.39901,0.0358 -0.44247,-0.88495 -0.13192,-0.066 -0.31056,0.066 -0.44248,0 -0.18657,-0.0933 -0.25591,-0.3492 -0.44248,-0.44248 -0.13192,-0.066 -0.31056,0.066 -0.44248,0 -0.37313,-0.18656 -0.51182,-0.69839 -0.88495,-0.88495 -0.11441,-0.0572 -2.34124,0 -2.65487,0 -0.14749,0 -0.33818,0.10429 -0.44248,0 -0.10429,-0.1043 0.1043,-0.33819 0,-0.44248 -0.22124,-0.22124 -1.10619,0.22124 -1.32743,0 0,-1.17994 0.14749,0.14749 -0.44248,-0.44248 -0.20859,-0.20859 0.20859,-0.67637 0,-0.88496 -0.14775,-0.14775 -0.7372,0.14776 -0.88495,0 -0.1043,-0.10429 0,-0.29498 0,-0.44247 -0.73747,-0.44248 -1.47493,-0.88496 -3.98231,-0.88496 z"
       id="path3593"
       transform="translate(0,652.36218)" />
    <path
       style="fill:#008000;stroke:#000000;stroke-width:1px;stroke-linecap:butt;stroke-linejoin:miter;stroke-opacity:1"
       d="m 429.64602,176.10619 c -0.95788,0 -0.90831,-0.13192 -1.76991,0.44248 -0.17356,0.11571 -0.25592,0.3492 -0.44248,0.44248 -0.23568,0.11784 -0.64928,-0.11784 -0.88496,0 -0.11748,0.0587 -1.26869,1.20995 -1.32743,1.32743 -0.066,0.13193 0.10429,0.33819 0,0.44248 -0.10429,0.10429 -0.33819,-0.10429 -0.44248,0 -0.0547,0.0547 0,1.49244 0,1.76991 0,0.10515 -0.0496,1.67074 0,1.76991 0.0933,0.18657 0.44248,0.65107 0.44248,0.44248 0,-0.3298 -0.67569,-1.11816 -0.44248,-0.88495 0.37604,0.37603 0.50892,0.9514 0.88496,1.32743 0.46641,0.46641 1.40402,0.33613 1.76991,0.88496 0.16363,0.24544 -0.16363,0.63951 0,0.88495 0.18294,0.27442 0.61054,0.25954 0.88495,0.44248 0.17356,0.1157 0.29499,0.29499 0.44248,0.44248 0.14749,0.14749 0.3492,0.25591 0.44248,0.44248 0.066,0.13192 -0.066,0.31055 0,0.44247 0.0933,0.18657 0.3492,0.25592 0.44248,0.44248 0.066,0.13192 0,0.29499 0,0.44248 0.14749,0.29498 0.25953,0.61054 0.44248,0.88496 0.2314,0.3471 0.69839,0.51182 0.88495,0.88495 0.13192,0.26384 -0.20858,0.67637 0,0.88496 0.10429,0.10429 0.33819,-0.1043 0.44248,0 0.10429,0.10429 -0.10429,0.33818 0,0.44247 0.10429,0.1043 0.31056,-0.066 0.44248,0 0.18656,0.0933 0.29498,0.29499 0.44248,0.44248 0.29498,0.29499 0.55121,0.63465 0.88495,0.88496 0.26384,0.19788 0.62111,0.24459 0.88496,0.44248 0.33373,0.2503 0.58997,0.58997 0.88495,0.88495 0.44248,0.44248 0.93653,0.8388 1.32744,1.32744 0.20602,0.25753 0.25953,0.61054 0.44247,0.88495 0.11571,0.17356 0.3492,0.25591 0.44248,0.44248 0.066,0.13192 -0.066,0.31056 0,0.44248 0.0933,0.18656 0.29499,0.29498 0.44248,0.44247 0.14749,0.1475 0.26892,0.32678 0.44248,0.44248 0.27441,0.18294 0.65175,0.20927 0.88495,0.44248 0.1043,0.10429 -0.066,0.31056 0,0.44248 0.0933,0.18656 0.3492,0.25591 0.44248,0.44248 0.066,0.13192 -0.066,0.31055 0,0.44247 0.29481,0.58962 0.59015,0.29534 0.88496,0.88496 0.066,0.13192 -0.066,0.31056 0,0.44248 0.0933,0.18656 0.34919,0.25591 0.44247,0.44248 0.066,0.13192 -0.066,0.31055 0,0.44247 0.29481,0.58962 0.59015,0.29534 0.88496,0.88496 0.066,0.13192 0,0.29498 0,0.44248 0,0.14749 0,0.29498 0,0.44248 0,0.73746 0,1.47492 0,2.21238 0,0.29076 -0.0832,1.07779 0,1.32744 0.42797,1.28392 0.27744,0.51741 0.88496,1.32743 0.74641,0.99522 0.79913,1.48431 1.76991,2.21239 0.26384,0.19788 0.68707,0.17864 0.88495,0.44248 0.27985,0.37313 0.18376,0.93935 0.44248,1.32743 0.0818,0.12272 0.33819,-0.10429 0.44248,0 0.23321,0.23321 0.20927,0.65175 0.44248,0.88496 0.10429,0.10429 0.33818,-0.10429 0.44248,0 0.10429,0.10429 -0.1043,0.33818 0,0.44248 0.10429,0.10429 0.33818,-0.1043 0.44247,0 0.1043,0.10429 -0.10429,0.33818 0,0.44247 0.0443,0.0442 1.28319,0.0442 1.32744,0 0.2332,-0.2332 0.27279,-0.60215 0.44247,-0.88495 0.27361,-0.45601 0.68746,-0.83368 0.88496,-1.32744 0.10956,-0.27388 -0.13192,-0.62111 0,-0.88495 0.6952,-1.3904 1.03277,-0.2966 1.32743,-1.76991 0.0868,-0.43389 -0.13992,-0.90766 0,-1.32744 0.0466,-0.13992 0.33819,0.1043 0.44248,0 0.23321,-0.2332 0.33819,-0.57207 0.44248,-0.88495 0.0933,-0.27985 -0.20859,-0.67637 0,-0.88496 0.10429,-0.10429 0.37652,0.13192 0.44248,0 0.0808,-0.16157 -0.0861,-2.12626 0,-2.21239 0.10429,-0.10429 0.33818,0.1043 0.44248,0 0.20858,-0.20858 -0.13193,-0.62111 0,-0.88495 0.0933,-0.18657 0.39188,-0.24012 0.44247,-0.44248 0.0241,-0.0965 -0.10066,-2.01106 0,-2.21239 0.0933,-0.18657 0.3492,-0.25591 0.44248,-0.44248 0.0673,-0.13466 0,-1.12816 0,-1.32743 0,-1.17994 0,-2.35988 0,-3.53982 0,-1.76992 0,-3.53983 0,-5.30974 0,-0.46594 0.0917,-1.84571 0,-2.21239 -0.11312,-0.45249 -0.3658,-0.86737 -0.44248,-1.32743 -0.0727,-0.43646 0,-0.88496 0,-1.32744 0,-1.32743 0,-2.65486 0,-3.9823 0,-1.32743 0,-2.65486 0,-3.9823 0,-0.14749 -0.066,-0.31055 0,-0.44248 0.0576,-0.11519 0.78838,-0.53905 0.44248,-0.88495 -0.12107,-0.12107 -1.52987,0.12002 -1.76991,0 -0.18657,-0.0933 -0.25591,-0.3492 -0.44248,-0.44248 -0.26384,-0.13192 -0.67637,0.20859 -0.88495,0 -0.1043,-0.10429 0.10429,-0.33818 0,-0.44248 -0.20859,-0.20858 -0.67637,0.20859 -0.88496,0 -0.10429,-0.10429 0.10429,-0.33818 0,-0.44247 -0.22124,-0.22124 -1.10619,0.22123 -1.32743,0 -0.1043,-0.1043 0.13192,-0.37652 0,-0.44248 -0.26385,-0.13192 -0.60511,0.0933 -0.88496,0 -0.19788,-0.066 -0.25591,-0.3492 -0.44248,-0.44248 -0.13192,-0.066 -0.29498,0 -0.44247,0 -0.1475,0 -0.29499,0 -0.44248,0 -0.73747,0 -1.47493,0 -2.21239,0 -0.88496,0 -1.76991,0 -2.65487,0 -0.14749,0 -0.29498,0 -0.44248,0 -0.14749,0 -0.31055,-0.066 -0.44248,0 -0.18656,0.0933 -0.25591,0.34919 -0.44247,0.44248 -0.35399,0.17699 -0.97345,-0.17699 -1.32744,0 -0.18656,0.0933 -0.25591,0.34919 -0.44247,0.44248 -0.27915,0.13957 -1.93325,-0.13958 -2.21239,0 -0.18657,0.0933 -0.25592,0.34919 -0.44248,0.44247 -0.13192,0.066 -0.33819,-0.10429 -0.44248,0 -0.10429,0.1043 0.10429,0.33819 0,0.44248 -0.0905,0.0905 -1.15199,-0.0877 -1.32743,0 -0.18657,0.0933 -0.29499,0.29499 -0.44248,0.44248 -0.73746,0.29498 -1.47493,0.58997 -3.9823,0.88495 z"
       id="path3595"
       transform="translate(0,652.36218)" />
    <path
       style="fill:#008000;stroke:#000000;stroke-width:1px;stroke-linecap:butt;stroke-linejoin:miter;stroke-opacity:1"
       d="m 437.16814,172.12389 c -0.43587,-0.0536 -0.89817,0.10732 -1.32743,0 -0.31996,-0.08 -0.57874,-0.31999 -0.88496,-0.44247 -0.44248,-0.1475 -0.88495,-0.29499 -1.32743,-0.44248 -0.14749,-0.14749 -0.25591,-0.3492 -0.44248,-0.44248 -0.13192,-0.066 -0.29498,0 -0.44248,0 -0.29498,0 -0.60511,0.0933 -0.88495,0 -0.19788,-0.066 -0.26893,-0.32678 -0.44248,-0.44248 -0.27441,-0.18294 -0.57208,-0.33818 -0.88496,-0.44248 -0.27772,-0.0926 -1.4137,0 -1.76991,0 -1.32743,0 -2.65487,0 -3.9823,0 -0.60713,0 -1.43253,0.2323 -1.76991,-0.44247 -0.08,-0.16002 0,-1.90463 0,-2.21239 0,-0.31363 -0.0572,-2.54047 0,-2.65487 0.33738,-0.67477 1.16278,-0.44248 1.76991,-0.44248 1.03245,0 2.0649,0 3.09735,0 0.29498,0 0.58997,0 0.88495,0 0.14749,0 0.31056,0.066 0.44248,0 0.18657,-0.0933 0.25591,-0.34919 0.44248,-0.44248 0.30563,-0.15281 2.05707,0.15532 2.21239,0 0.9155,-0.9155 -1.39901,0.0358 0.44248,-0.88495 0.26384,-0.13192 0.67636,0.20858 0.88495,0 0.10429,-0.10429 -0.10429,-0.33819 0,-0.44248 0.10429,-0.10429 0.31056,0.066 0.44248,0 0.18656,-0.0933 0.25591,-0.34919 0.44248,-0.44248 0.13192,-0.066 0.33818,0.1043 0.44247,0 0.1043,-0.10429 -0.10429,-0.33818 0,-0.44248 0.20859,-0.20858 0.62112,0.13193 0.88496,0 0.18657,-0.0933 0.25591,-0.34919 0.44248,-0.44247 0.13192,-0.066 0.33818,0.10429 0.44248,0 0.10429,-0.1043 -0.1043,-0.33819 0,-0.44248 0.10429,-0.10429 0.31055,0.066 0.44247,0 0.18657,-0.0933 0.25592,-0.3492 0.44248,-0.44248 0.13192,-0.066 0.33819,0.10429 0.44248,0 0.20859,-0.20859 -0.29499,-0.88495 0,-0.88495 0.14749,0 0,0.58997 0,0.44247 0,-0.29498 0,-0.58997 0,-0.88495 0,-0.1475 -0.14749,-0.44248 0,-0.44248 0.62684,0 -1.25369,2.0649 0,-0.44248 0.066,-0.13192 0.31056,0.066 0.44248,0 0.18656,-0.0933 0.25591,-0.34919 0.44248,-0.44248 0.13192,-0.066 0.33818,0.1043 0.44247,0 0.1043,-0.10429 -0.10429,-0.33818 0,-0.44247 0.0178,-0.0178 1.60742,0 1.76991,0 0.10732,0 1.31321,-0.0142 1.32744,0 0.10429,0.10429 -0.10429,0.33818 0,0.44247 0.22124,0.22124 1.10619,-0.22124 1.32743,0 0.1043,0.1043 -0.10429,0.33819 0,0.44248 0.1043,0.10429 0.29499,0 0.44248,0 0.73746,0 1.47493,0 2.21239,0 0.10731,0 1.3132,0.0142 1.32743,0 0.1043,-0.10429 -0.066,-0.31055 0,-0.44248 0.18657,-0.37313 0.75304,-0.48919 0.88496,-0.88495 0.0933,-0.27985 -0.0933,-0.60511 0,-0.88496 0.46037,-1.38111 0.29498,0.14749 0.88495,-0.44248 0.1043,-0.10429 0,-0.29498 0,-0.44247 0,-1.17994 0,-2.35989 0,-3.53983 0,-0.23138 0.0582,-1.65356 0,-1.76991 -0.0933,-0.18656 -0.34919,-0.25591 -0.44247,-0.44248 -0.066,-0.13192 0.10429,-0.33818 0,-0.44247 -0.0142,-0.0142 -1.22012,0 -1.32744,0 -0.20862,0 -2.19233,-0.0201 -2.21239,0 -0.10429,0.10429 0.1043,0.33818 0,0.44247 -0.20858,0.20859 -0.67637,-0.20858 -0.88495,0 -0.1043,0.1043 0.10429,0.33819 0,0.44248 -0.1043,0.1043 -0.33819,-0.10429 -0.44248,0 -0.20859,0.20859 0.20859,0.67637 0,0.88496 -0.10429,0.10429 -0.33818,-0.1043 -0.44248,0 -0.10429,0.10429 0.1043,0.33818 0,0.44248 -0.20858,0.20858 -0.67637,-0.20859 -0.88495,0 -0.1043,0.10429 0.10429,0.33818 0,0.44247 -0.20859,0.20859 -0.62112,-0.13192 -0.88496,0 -0.11982,0.0599 -0.76514,0.82505 -0.88496,0.88496 -0.13192,0.066 -0.33818,-0.10429 -0.44247,0 -0.1043,0.10429 0.10429,0.33818 0,0.44248 -0.1043,0.10429 -0.31056,-0.066 -0.44248,0 -0.37313,0.18656 -0.51183,0.69839 -0.88496,0.88495 -0.13192,0.066 -0.33818,-0.10429 -0.44247,0 -0.1043,0.1043 0.10429,0.33819 0,0.44248 -0.0443,0.0442 -1.28319,0.0442 -1.32744,0 -0.0142,-0.0142 0,-1.22012 0,-1.32743 0,-0.20863 0.0201,-2.19234 0,-2.21239 -0.10429,-0.1043 -0.33818,0.10429 -0.44248,0 -0.10647,-0.10648 0.10648,-1.66344 0,-1.76991 -0.0624,-0.0624 -1.23666,-0.0454 -1.32743,0 -0.18656,0.0933 -0.25591,0.34919 -0.44248,0.44247 -0.13192,0.066 -0.33818,-0.10429 -0.44248,0 -0.10429,0.1043 0.1475,0.44248 0,0.44248 -0.14749,0 -0.066,-0.31055 0,-0.44248 0.0933,-0.18656 0.3492,-0.25591 0.44248,-0.44247 0.066,-0.13193 -0.10429,-0.33819 0,-0.44248 0.20859,-0.20859 0.62112,0.13192 0.88496,0 0.18656,-0.0933 0.25591,-0.3492 0.44248,-0.44248 0.13192,-0.066 0.33818,0.10429 0.44247,0 0.23321,-0.23321 0.20928,-0.65175 0.44248,-0.88496 0.23321,-0.2332 0.65175,-0.20927 0.88496,-0.44247 0.10429,-0.1043 -0.1043,-0.33819 0,-0.44248 1.17994,0 -0.1475,0.14749 0.44248,-0.44248 0.10429,-0.10429 0.33818,0.10429 0.44247,0 0.1043,-0.10429 -0.10429,-0.33818 0,-0.44248 0.20859,-0.20858 0.67637,0.20859 0.88496,0 0.10429,-0.10429 -0.10429,-0.33818 0,-0.44247 0.22124,-0.22124 1.10619,0.22123 1.32743,0 0.1043,-0.1043 -0.10429,-0.33819 0,-0.44248 0.1043,-0.1043 0.33819,0.10429 0.44248,0 0.10429,-0.1043 -0.10429,-0.33819 0,-0.44248 0.10429,-0.10429 0.29499,0 0.44248,0 0.14749,0 0.29498,0 0.44248,0 0.88495,0 1.76991,0 2.65486,0 0.1475,0 0.33819,-0.10429 0.44248,0 0.10429,0.10429 -0.10429,0.33818 0,0.44248 0.22124,0.22124 1.1062,-0.22124 1.32744,0 0.10429,0.10429 -0.1043,0.33818 0,0.44248 0.14775,0.14775 0.7372,-0.14776 0.88495,0 0.10429,0.10429 -0.10429,0.33818 0,0.44247 0.14775,0.14776 0.7372,-0.14775 0.88496,0 0.10429,0.1043 -0.1043,0.33819 0,0.44248 0.10429,0.10429 0.31055,-0.066 0.44247,0 0.18657,0.0933 0.25592,0.3492 0.44248,0.44248 0.13192,0.066 0.33819,-0.10429 0.44248,0 0.10429,0.10429 -0.10429,0.33818 0,0.44248 0.10429,0.10429 0.33819,-0.1043 0.44248,0 0.10429,0.10429 0,0.29498 0,0.44247 0.14749,0.1475 0.26892,0.32678 0.44248,0.44248 0.27441,0.18294 0.65175,0.20927 0.88495,0.44248 0.10429,0.10429 -0.066,0.31056 0,0.44248 0.18657,0.37313 0.69839,0.51182 0.88496,0.88495 0.066,0.13193 -0.1043,0.33819 0,0.44248 0.10429,0.1043 0.33818,-0.10429 0.44248,0 0.2332,0.23321 0.20927,0.65175 0.44247,0.88496 0.1043,0.10429 0.33819,-0.1043 0.44248,0 0.23321,0.2332 0.20927,0.65175 0.44248,0.88495 0.10429,0.1043 0.33818,-0.10429 0.44248,0 0.10429,0.1043 -0.1043,0.33819 0,0.44248 0.10429,0.10429 0.33818,-0.10429 0.44247,0 0.1043,0.10429 -0.10429,0.33819 0,0.44248 0.91551,0.9155 -0.0358,-1.39901 0.88496,0.44248 0.066,0.13192 -0.066,0.31055 0,0.44248 0.0933,0.18656 0.3492,0.25591 0.44248,0.44247 0.066,0.13192 -0.10429,0.33819 0,0.44248 0.10429,0.10429 0.33818,-0.10429 0.44248,0 0.10429,0.10429 -0.1043,0.33819 0,0.44248 0.14775,0.14775 0.7372,-0.14775 0.88495,0 0.1043,0.10429 -0.10429,0.33818 0,0.44248 0.1043,0.10429 0.33819,-0.1043 0.44248,0 0.10429,0.10429 -0.066,0.31055 0,0.44247 0.0933,0.18657 0.3492,0.25592 0.44248,0.44248 0.066,0.13192 -0.1043,0.33819 0,0.44248 0.10429,0.10429 0.33818,-0.10429 0.44248,0 0.10429,0.10429 -0.066,0.31056 0,0.44248 0.0933,0.18656 0.34919,0.25591 0.44247,0.44248 0.066,0.13192 -0.10429,0.33818 0,0.44247 0.1043,0.1043 0.33819,-0.10429 0.44248,0 0.12107,0.12108 -0.12002,1.52988 0,1.76992 0.0933,0.18656 0.3492,0.25591 0.44248,0.44247 0.17699,0.35399 -0.17699,0.97345 0,1.32744 0.0933,0.18656 0.34919,0.25591 0.44248,0.44247 0.0877,0.17544 -0.0905,1.23698 0,1.32744 0.14789,0.1479 0.73706,-0.1479 0.88495,0 0.1043,0.10429 -0.10429,0.33818 0,0.44248 0.1043,0.10429 0.33819,-0.1043 0.44248,0 0.23321,0.2332 0.25954,0.61054 0.44248,0.88495 0.2314,0.34711 0.69839,0.51183 0.88495,0.88496 0.11818,0.23634 -0.11817,0.64861 0,0.88495 0.18657,0.37313 0.75304,0.48919 0.88496,0.88496 0.0933,0.27985 -0.0933,0.60511 0,0.88495 0.13192,0.39577 0.69839,0.51183 0.88496,0.88496 0.066,0.13192 -0.1043,0.33819 0,0.44248 0.10429,0.10429 0.33818,-0.10429 0.44247,0 0.12108,0.12107 -0.12002,1.52987 0,1.76991 1.46752,1.46751 -0.20858,-0.41717 0.44248,0.88496 0.0933,0.18656 0.37652,0.24459 0.44248,0.44247 0.0933,0.27985 0,0.58997 0,0.88496 0,0.14749 -0.066,0.31056 0,0.44248 0.0933,0.18656 0.37652,0.24459 0.44248,0.44248 0,2.01428 -0.20859,0.0253 0.44248,1.32743 0.12001,0.24004 -0.12108,1.64884 0,1.76991 0.10429,0.10429 0.33818,-0.10429 0.44247,0 0.1043,0.10429 -0.066,0.31056 0,0.44248 0.0933,0.18656 0.37652,0.24459 0.44248,0.44248 0.0933,0.27984 0,0.58997 0,0.88495 0.14749,0.29499 0.29499,0.58997 0.44248,0.88496 1.02711,2.05422 0.0376,-0.25469 0.44248,1.76991 0.0915,0.45735 0.32935,0.87495 0.44247,1.32743 0.0716,0.28618 0,0.58997 0,0.88496 0,0.73746 0,1.47492 0,2.21239 0,0.10731 0.0142,1.3132 0,1.32743 -0.10429,0.10429 -0.31055,-0.066 -0.44247,0 -0.18657,0.0933 -0.25592,0.3492 -0.44248,0.44248 -0.11635,0.0582 -1.53853,0 -1.76991,0 -0.58997,0 -1.17994,0 -1.76991,0 -0.1475,0 -0.33819,0.10429 -0.44248,0 -0.23321,-0.23321 -0.25954,-0.61054 -0.44248,-0.88496 -0.1157,-0.17355 -0.3492,-0.25591 -0.44248,-0.44247 -0.066,-0.13193 0.1043,-0.33819 0,-0.44248 -0.10429,-0.1043 -0.33818,0.10429 -0.44248,0 -0.14749,-0.29499 -0.29498,-0.58997 -0.44247,-0.88496 -0.1475,0 -0.33819,0.1043 -0.44248,0 -0.20859,-0.20858 0.20858,-0.67637 0,-0.88495 -0.10429,-0.1043 -0.33819,0.10429 -0.44248,0 -0.10429,-0.1043 0.066,-0.31056 0,-0.44248 -0.0933,-0.18657 -0.34919,-0.25591 -0.44248,-0.44248 -0.17699,-0.35398 0.17699,-0.97345 0,-1.32743 -0.0933,-0.18657 -0.34919,-0.25592 -0.44247,-0.44248 -0.13958,-0.27915 0.13957,-1.93324 0,-2.21239 -0.0933,-0.18657 -0.3492,-0.25591 -0.44248,-0.44248 -0.066,-0.13192 0.10429,-0.33818 0,-0.44248 -0.1043,-0.10429 -0.33819,0.1043 -0.44248,0 -0.20859,-0.20858 0.13192,-0.62111 0,-0.88495 -1.46752,-1.46752 0.20859,0.41717 -0.44248,-0.88496 -0.92074,-1.84148 0.0306,0.47303 -0.88495,-0.44248 -0.1043,-0.10429 0.066,-0.31055 0,-0.44247 -0.0933,-0.18657 -0.3492,-0.25592 -0.44248,-0.44248 -0.066,-0.13192 0.10429,-0.33819 0,-0.44248 -0.1043,-0.10429 -0.33819,0.10429 -0.44248,0 -0.10429,-0.10429 0.10429,-0.33818 0,-0.44248 -0.10429,-0.10429 -0.31056,0.066 -0.44248,0 -0.18656,-0.0933 -0.25591,-0.34919 -0.44248,-0.44247 -0.13192,-0.066 -0.33818,0.10429 -0.44247,0 -0.23321,-0.23321 -0.20928,-0.65175 -0.44248,-0.88496 -0.10429,-0.10429 -0.33819,0.10429 -0.44248,0 -0.10429,-0.10429 0.10429,-0.33819 0,-0.44248 -0.23321,-0.2332 -0.61054,-0.25953 -0.88496,-0.44248 -0.17355,-0.1157 -0.25591,-0.34919 -0.44247,-0.44247 -0.13192,-0.066 -0.33819,0.10429 -0.44248,0 -0.10429,-0.1043 0.10429,-0.33819 0,-0.44248 -0.20859,-0.20859 -0.60511,0.0933 -0.88496,0 -0.31288,-0.1043 -0.57207,-0.33819 -0.88495,-0.44248 -0.27985,-0.0933 -0.67637,0.20859 -0.88496,0 -0.10429,-0.10429 0.10429,-0.33818 0,-0.44248 -0.10429,-0.10429 -0.29498,0 -0.44248,0 -0.88495,0 -1.76991,0 -2.65486,0 -0.31363,0 -2.54047,-0.0572 -2.65487,0 -0.18657,0.0933 -0.25591,0.3492 -0.44248,0.44248 -0.13192,0.066 -0.30255,-0.0466 -0.44248,0 -0.31288,0.10429 -0.57207,0.33818 -0.88495,0.44248 -0.17218,0.0574 -1.25877,-0.0687 -1.32744,0 -0.10429,0.10429 0.1043,0.33818 0,0.44248 -0.20858,0.20858 -0.67637,-0.20859 -0.88495,0 -0.10429,0.10429 0.10429,0.33818 0,0.44247 -0.10429,0.1043 -0.29499,0 -0.44248,0 -0.73746,0 -1.47493,0 -4.42478,0 z"
       id="path3597"
       transform="translate(0,652.36218)" />
    <path
       transform="translate(0,652.36218)"
       d="m 470,180 a 45,45 0 1 1 -90,0 45,45 0 1 1 90,0 z"
       sodipodi:ry="45"
       sodipodi:rx="45"
       sodipodi:cy="180"
       sodipodi:cx="425"
       id="path3599"
       style="fill:none;fill-opacity:1;fill-rule:evenodd;stroke:#000000;stroke-width:4;stroke-linecap:round;stroke-linejoin:round;stroke-miterlimit:4;stroke-opacity:1;stroke-dasharray:none;stroke-dashoffset:0"
       sodipodi:type="arc" />
  </g>
</svg>
